# Blender 4.1.1
# www.blender.org
mtllib test_map_2.mtl
o Plane.003
v -6.000000 0.000000 -18.000000
v -42.000000 0.000000 -30.000000
v -6.000000 0.000000 -30.000000
v -6.000000 0.000000 -6.000000
v 6.000002 0.000000 -6.000000
v 6.000002 0.000000 -18.000000
v 6.000002 0.000000 -30.000000
v -42.000000 0.000000 6.000000
v -30.000000 0.000000 -6.000000
v -30.000000 0.000000 -18.000000
v -6.000000 0.000000 6.000000
v 6.000002 0.000000 6.000000
v 6.000002 0.000000 42.000000
v 6.000002 0.000000 30.000000
v -42.000000 0.000000 42.000000
v -6.000000 0.000000 42.000000
v -42.000000 0.000000 30.000000
v -6.000000 0.000000 30.000000
v -54.000000 0.000000 -6.000000
v -42.000000 0.000000 -6.000000
v -54.000000 0.000000 -18.000000
v -42.000000 0.000000 -18.000000
v -54.000000 0.000000 42.000000
v -54.000000 0.000000 30.000000
v -90.000000 0.000000 30.000000
v -66.000000 0.000000 30.000000
v -90.000000 0.000000 6.000000
v -66.000000 0.000000 6.000000
v -66.000000 0.000000 42.000000
v -66.000000 0.000000 -18.000000
v -66.000000 0.000000 -6.000000
v -66.000000 0.000000 6.000000
v -66.000000 0.000000 18.000000
v -66.000000 0.000000 30.000000
v -54.000000 0.000000 30.000000
v -54.000000 0.000000 18.000000
v -54.000000 0.000000 6.000000
v -54.000000 0.000000 -6.000000
v -6.000000 0.000000 -18.000000
v -42.000000 0.000000 -30.000000
v -6.000000 0.000000 -30.000000
v -6.000000 0.000000 -6.000000
v 6.000002 0.000000 -6.000000
v 6.000002 0.000000 -18.000000
v 6.000002 0.000000 -30.000000
v -42.000000 0.000000 6.000000
v -30.000000 0.000000 -6.000000
v -30.000000 0.000000 -18.000000
v -6.000000 0.000000 6.000000
v 6.000002 0.000000 6.000000
v 6.000002 0.000000 42.000000
v 6.000002 0.000000 30.000000
v -42.000000 0.000000 42.000000
v -6.000000 0.000000 42.000000
v -42.000000 0.000000 30.000000
v -6.000000 0.000000 30.000000
v -54.000000 0.000000 -6.000000
v -42.000000 0.000000 -6.000000
v -54.000000 0.000000 -18.000000
v -42.000000 0.000000 -18.000000
v -54.000000 0.000000 42.000000
v -54.000000 0.000000 30.000000
v -90.000000 0.000000 30.000000
v -66.000000 0.000000 30.000000
v -90.000000 0.000000 6.000000
v -66.000000 0.000000 6.000000
v -66.000000 0.000000 42.000000
v -66.000000 0.000000 -18.000000
v -66.000000 0.000000 -6.000000
v -66.000000 0.000000 6.000000
v -66.000000 0.000000 30.000000
v -54.000000 0.000000 30.000000
v -54.000000 0.000000 18.000000
v -54.000000 0.000000 6.000000
v -54.000000 0.000000 -6.000000
v -18.000000 0.000000 -30.000000
v -30.000000 0.000000 -30.000000
v -30.000000 0.000000 -18.000000
v -18.000000 0.000000 -18.000000
v -18.000000 0.000000 -30.000000
v -30.000000 0.000000 -30.000000
v -30.000000 0.000000 -18.000000
v -18.000000 0.000000 -18.000000
v -30.000000 0.000000 6.000000
v -18.000000 0.000000 6.000000
v -18.000000 0.000000 -6.000000
v -30.000000 0.000000 -6.000000
v -30.000000 0.000000 6.000000
v -18.000000 0.000000 6.000000
v -18.000000 0.000000 -6.000000
v -30.000000 0.000000 -6.000000
v -6.000000 2.000000 -18.000000
v -42.000000 2.000000 -30.000000
v -6.000000 2.000000 -30.000000
v -6.000000 2.000000 -6.000000
v 6.000002 2.000000 -6.000000
v 6.000002 2.000000 -18.000000
v 6.000002 2.000000 -30.000000
v -42.000000 2.000000 6.000000
v -30.000000 2.000000 -6.000000
v -30.000000 2.000000 -18.000000
v -6.000000 2.000000 6.000000
v 6.000002 2.000000 6.000000
v 6.000002 2.000000 42.000000
v 6.000002 2.000000 30.000000
v -42.000000 2.000000 42.000000
v -6.000000 2.000000 42.000000
v -42.000000 2.000000 30.000000
v -6.000000 2.000000 30.000000
v -54.000000 2.000000 -6.000000
v -42.000000 2.000000 -6.000000
v -54.000000 2.000000 -18.000000
v -42.000000 2.000000 -18.000000
v -54.000000 2.000000 42.000000
v -54.000000 2.000000 30.000000
v -90.000000 2.000000 30.000000
v -66.000000 2.000000 30.000000
v -90.000000 2.000000 6.000000
v -66.000000 2.000000 6.000000
v -66.000000 2.000000 42.000000
v -66.000000 2.000000 -18.000000
v -66.000000 2.000000 -6.000000
v -66.000000 2.000000 6.000000
v -66.000000 2.000000 30.000000
v -54.000000 2.000000 30.000000
v -54.000000 2.000000 18.000000
v -54.000000 2.000000 6.000000
v -54.000000 2.000000 -6.000000
v -18.000000 2.000000 -30.000000
v -30.000000 2.000000 -30.000000
v -30.000000 2.000000 -18.000000
v -18.000000 2.000000 -18.000000
v -30.000000 2.000000 6.000000
v -18.000000 2.000000 6.000000
v -18.000000 2.000000 -6.000000
v -30.000000 2.000000 -6.000000
vn -0.0000 1.0000 -0.0000
vn -0.0000 -0.0000 -1.0000
vn -1.0000 -0.0000 -0.0000
vn 1.0000 -0.0000 -0.0000
vn -0.0000 -0.0000 1.0000
vt 0.666667 0.000000
vt 1.000000 0.000000
vt 1.000000 1.000000
vt 0.666667 1.000000
vt 0.000000 0.000000
vt 0.000000 1.000000
vt 0.000000 0.800000
vt 1.000000 0.800000
vt 1.000000 0.200000
vt 0.000000 0.200000
vt 1.000000 0.400000
vt 0.000000 0.400000
vt 1.000000 0.600000
vt 0.000000 0.600000
vt 0.333333 0.000000
vt 0.333333 1.000000
s 0
f 79/1/1 1/2/1 3/3/1 76/4/1
f 11/5/1 12/2/1 5/3/1 4/6/1
f 4/5/1 5/2/1 6/3/1 1/6/1
f 1/5/1 6/2/1 7/3/1 3/6/1
f 85/1/1 11/2/1 4/3/1 86/4/1
f 20/5/1 9/2/1 10/3/1 22/6/1
f 18/5/1 14/2/1 12/3/1 11/6/1
f 16/5/1 13/2/1 14/3/1 18/6/1
f 15/5/1 16/2/1 18/3/1 17/6/1
f 19/5/1 20/2/1 22/3/1 21/6/1
f 23/5/1 15/2/1 17/3/1 24/6/1
f 25/5/1 26/2/1 28/3/1 27/6/1
f 31/7/1 38/8/1 21/3/1 30/6/1
f 29/5/1 23/2/1 35/9/1 34/10/1
f 34/10/1 35/9/1 36/11/1 33/12/1
f 33/12/1 36/11/1 37/13/1 32/14/1
f 32/14/1 37/13/1 38/8/1 31/7/1
f 13/2/1 16/5/1 54/5/1 51/2/1
f 5/3/1 12/2/1 50/2/1 43/3/1
f 15/2/1 23/5/1 61/5/1 53/2/1
f 4/5/1 1/6/1 39/6/1 42/5/1
f 20/2/1 19/5/1 57/5/1 58/2/1
f 24/6/1 17/3/1 55/3/1 62/6/1
f 6/3/1 5/2/1 43/2/1 44/3/1
f 23/2/1 29/5/1 67/5/1 61/2/1
f 21/6/1 22/3/1 60/3/1 59/6/1
f 76/4/1 3/3/1 41/3/1 80/4/1
f 3/6/1 7/3/1 45/3/1 41/6/1
f 30/6/1 21/3/1 59/3/1 68/6/1
f 8/5/1 20/6/1 58/6/1 46/5/1
f 25/5/1 27/6/1 65/6/1 63/5/1
f 31/7/1 30/6/1 68/6/1 69/7/1
f 7/3/1 6/2/1 44/2/1 45/3/1
f 84/15/1 8/5/1 46/5/1 88/15/1
f 26/2/1 25/5/1 63/5/1 64/2/1
f 32/14/1 31/7/1 69/7/1 70/14/1
f 10/3/1 9/2/1 47/2/1 48/3/1
f 86/4/1 4/3/1 42/3/1 90/4/1
f 27/6/1 28/3/1 66/3/1 65/6/1
f 14/3/1 13/2/1 51/2/1 52/3/1
f 29/5/1 34/10/1 71/10/1 67/5/1
f 18/5/1 11/6/1 49/6/1 56/5/1
f 22/5/1 2/6/1 40/6/1 60/5/1
f 36/11/1 35/9/1 72/9/1 73/11/1
f 16/2/1 15/5/1 53/5/1 54/2/1
f 78/15/1 22/5/1 60/5/1 82/15/1
f 37/13/1 36/11/1 73/11/1 74/13/1
f 12/3/1 14/2/1 52/2/1 50/3/1
f 38/8/1 37/13/1 74/13/1 75/8/1
f 17/6/1 18/3/1 56/3/1 55/6/1
f 1/2/1 79/1/1 83/1/1 39/2/1
f 79/1/1 78/15/1 82/15/1 83/1/1
f 2/6/1 77/16/1 81/16/1 40/6/1
f 77/16/1 76/4/1 80/4/1 81/16/1
f 22/5/1 78/15/1 77/16/1 2/6/1
f 78/15/1 79/1/1 76/4/1 77/16/1
f 20/6/1 87/16/1 91/16/1 58/6/1
f 87/16/1 86/4/1 90/4/1 91/16/1
f 11/2/1 85/1/1 89/1/1 49/2/1
f 85/1/1 84/15/1 88/15/1 89/1/1
f 8/5/1 84/15/1 87/16/1 20/6/1
f 84/15/1 85/1/1 86/4/1 87/16/1
f 54/2/2 53/5/2 106/5/2 107/2/2
f 74/13/3 73/11/3 126/11/3 127/13/3
f 46/5/4 58/6/4 111/6/4 99/5/4
f 55/6/5 56/3/5 109/3/5 108/6/5
f 75/8/3 74/13/3 127/13/3 128/8/3
f 49/2/2 89/1/2 134/1/2 102/2/2
f 58/2/2 57/5/2 110/5/2 111/2/2
f 80/4/5 41/3/5 94/3/5 129/4/5
f 59/6/5 60/3/5 113/3/5 112/6/5
f 88/15/2 46/5/2 99/5/2 133/15/2
f 56/5/4 49/6/4 102/6/4 109/5/4
f 81/16/5 80/4/5 129/4/5 130/16/5
f 63/5/4 65/6/4 118/6/4 116/5/4
f 89/1/2 88/15/2 133/15/2 134/1/2
f 50/3/3 52/2/3 105/2/3 103/3/3
f 64/2/2 63/5/2 116/5/2 117/2/2
f 90/4/5 42/3/5 95/3/5 135/4/5
f 51/2/2 54/5/2 107/5/2 104/2/2
f 83/1/2 82/15/2 131/15/2 132/1/2
f 65/6/5 66/3/5 119/3/5 118/6/5
f 91/16/5 90/4/5 135/4/5 136/16/5
f 53/2/2 61/5/2 114/5/2 106/2/2
f 67/5/4 71/10/4 124/10/4 120/5/4
f 62/6/5 55/3/5 108/3/5 115/6/5
f 60/5/4 40/6/4 93/6/4 113/5/4
f 61/2/2 67/5/2 120/5/2 114/2/2
f 39/2/2 83/1/2 132/1/2 92/2/2
f 40/6/5 81/16/5 130/16/5 93/6/5
f 68/6/5 59/3/5 112/3/5 121/6/5
f 43/3/3 50/2/3 103/2/3 96/3/3
f 45/3/3 44/2/3 97/2/3 98/3/3
f 69/7/4 68/6/4 121/6/4 122/7/4
f 42/5/4 39/6/4 92/6/4 95/5/4
f 48/3/3 47/2/3 100/2/3 101/3/3
f 70/14/4 69/7/4 122/7/4 123/14/4
f 44/3/3 43/2/3 96/2/3 97/3/3
f 52/3/3 51/2/3 104/2/3 105/3/3
f 73/11/3 72/9/3 125/9/3 126/11/3
f 41/6/5 45/3/5 98/3/5 94/6/5
